<svg xmlns="http://www.w3.org/2000/svg" width="480" height="720" fill="none" viewBox="0 0 480 720" aria-label="Homepage" class="css-7vzs6a"><path fill="#24CB71" d="M0 600c0-66.274 53.726-120 120-120h120v120c0 66.274-53.726 120-120 120S0 666.274 0 600"></path><path fill="#FF7237" d="M240 0v240h120c66.274 0 120-53.726 120-120S426.274 0 360 0z"></path><circle cx="359" cy="360" r="120" fill="#00B6FF"></circle><path fill="#FF3737" d="M0 120c0 66.274 53.726 120 120 120h120V0H120C53.726 0 0 53.726 0 120"></path><path fill="#874FFF" d="M0 360c0 66.274 53.726 120 120 120h120V240H120C53.726 240 0 293.726 0 360"></path></svg>