<svg width="66" height="30" viewBox="0 0 66 30" fill="none" xmlns="http://www.w3.org/2000/svg">
<path d="M24.9444 13.0325C24.9444 20.4807 13.4444 28.3945 13.4444 28.3945C13.4444 28.3945 1.94444 20.4807 1.94444 13.0325C1.94444 6.51522 7.34722 1.39453 13.4444 1.39453C19.5417 1.39453 24.9444 6.51522 24.9444 13.0325Z" fill="#4F46E5"/>
<path d="M13.4444 28.3945C13.4444 28.3945 24.9444 20.4807 24.9444 13.0325C24.9444 6.51522 19.5417 1.39453 13.4444 1.39453C7.34722 1.39453 1.94444 6.51522 1.94444 13.0325C1.94444 20.4807 13.4444 28.3945 13.4444 28.3945ZM13.4444 28.3945V1.6807" stroke="white" stroke-width="2" stroke-linecap="round" stroke-linejoin="round"/>
<circle cx="13.5" cy="14" r="3.5" fill="#EEF2FF" stroke="white"/>
<path d="M32.3601 24.2216C33.451 24.2216 34.397 23.3097 34.4055 22.1761C34.397 21.0597 33.451 20.1477 32.3601 20.1477C31.2351 20.1477 30.3061 21.0597 30.3146 22.1761C30.3061 23.3097 31.2351 24.2216 32.3601 24.2216ZM44.4261 10.9091H41.8267V10.0312C41.8267 9.14489 42.1847 8.625 43.25 8.625C43.6847 8.625 44.1278 8.71875 44.4176 8.8125L45.0568 6.08523C44.6051 5.94886 43.608 5.72727 42.4915 5.72727C40.0284 5.72727 38.196 7.11648 38.196 9.96307V10.9091H36.3466V13.6364H38.196V24H41.8267V13.6364H44.4261V10.9091ZM46.6442 24H50.2749V10.9091H46.6442V24ZM48.468 9.22159C49.5504 9.22159 50.4368 8.39489 50.4368 7.38068C50.4368 6.375 49.5504 5.54829 48.468 5.54829C47.3942 5.54829 46.5078 6.375 46.5078 7.38068C46.5078 8.39489 47.3942 9.22159 48.468 9.22159ZM64.0753 14.642C63.7514 12.2301 61.8082 10.7386 58.5014 10.7386C55.152 10.7386 52.9446 12.2898 52.9531 14.8125C52.9446 16.7727 54.1804 18.0426 56.7372 18.554L59.0043 19.0057C60.1463 19.2358 60.6662 19.6534 60.6832 20.3097C60.6662 21.0852 59.8224 21.6392 58.5526 21.6392C57.2571 21.6392 56.3963 21.0852 56.1747 20.0199L52.6037 20.2074C52.9446 22.7131 55.0753 24.2557 58.544 24.2557C61.9361 24.2557 64.3651 22.5256 64.3736 19.9432C64.3651 18.0511 63.1293 16.9176 60.5895 16.3977L58.2202 15.9205C57.0014 15.6562 56.5497 15.2386 56.5582 14.608C56.5497 13.8239 57.4361 13.3125 58.5611 13.3125C59.8224 13.3125 60.5724 14.0028 60.7514 14.8466L64.0753 14.642Z" fill="#1F2937"/>
</svg>
